<svg xmlns="http://www.w3.org/2000/svg" xmlns:xlink="http://www.w3.org/1999/xlink" width="350" zoomAndPan="magnify" viewBox="0 0 262.5 74.999997" height="100" preserveAspectRatio="xMidYMid meet" version="1.0"><defs><g/><clipPath id="c77f756944"><path d="M 161 0.0703125 L 260 0.0703125 L 260 74.925781 L 161 74.925781 Z M 161 0.0703125 " clip-rule="nonzero"/></clipPath><clipPath id="7d000fde5a"><path d="M 136 0.0703125 L 227 0.0703125 L 227 74.925781 L 136 74.925781 Z M 136 0.0703125 " clip-rule="nonzero"/></clipPath><clipPath id="bea13c0c46"><path d="M 121 0.0703125 L 194 0.0703125 L 194 74.925781 L 121 74.925781 Z M 121 0.0703125 " clip-rule="nonzero"/></clipPath><clipPath id="3975c5f27f"><path d="M 97 0.0703125 L 181 0.0703125 L 181 74.925781 L 97 74.925781 Z M 97 0.0703125 " clip-rule="nonzero"/></clipPath><clipPath id="5207207eba"><path d="M 56 0.0703125 L 146 0.0703125 L 146 74.925781 L 56 74.925781 Z M 56 0.0703125 " clip-rule="nonzero"/></clipPath><clipPath id="b4f1a283b0"><path d="M 23 0.0703125 L 110 0.0703125 L 110 74.925781 L 23 74.925781 Z M 23 0.0703125 " clip-rule="nonzero"/></clipPath><clipPath id="2c9ef5125a"><path d="M 0 0.0703125 L 79 0.0703125 L 79 74.925781 L 0 74.925781 Z M 0 0.0703125 " clip-rule="nonzero"/></clipPath></defs><g clip-path="url(#c77f756944)"><path stroke-linecap="butt" transform="matrix(0.746906, 0, 0, 0.746906, 188.533507, -2.48075)" fill="none" stroke-linejoin="miter" d="M 35.957818 29.936364 C 37.207766 28.639347 38.614611 27.677044 40.178353 27.054685 C 41.757785 26.427096 43.337217 26.118532 44.916649 26.118532 C 47.306716 26.118532 49.450978 26.699051 51.344204 27.870551 C 53.25835 29.03682 54.769793 30.600562 55.883763 32.567007 C 56.997734 34.517762 57.557334 36.688174 57.557334 39.073011 C 57.557334 40.704742 57.259229 42.326013 56.66302 43.931595 C 56.06158 45.537176 55.141117 46.99109 53.896399 48.293337 L 42.725318 59.694534 L 42.725318 71.043432 C 42.725318 73.42827 42.139568 75.609141 40.957609 77.570356 C 39.78611 79.521111 38.211908 81.079624 36.219313 82.245893 C 34.242409 83.417392 32.056308 83.997912 29.67147 83.997912 C 27.333702 83.997912 25.17375 83.417392 23.181155 82.245893 C 21.204251 81.079624 19.630049 79.521111 18.463779 77.570356 C 17.29751 75.609141 16.711761 73.42827 16.711761 71.043432 L 16.711761 59.694534 L 5.545909 48.293337 C 4.353491 46.99109 3.443487 45.537176 2.821128 43.931595 C 2.193539 42.326013 1.884974 40.704742 1.884974 39.073011 C 1.884974 36.688174 2.434115 34.517762 3.537625 32.567007 C 4.651595 30.600562 6.157808 29.03682 8.051035 27.870551 C 9.965181 26.699051 12.088523 26.118532 14.421061 26.118532 C 16.000493 26.118532 17.569465 26.427096 19.122748 27.054685 C 20.6708 27.677044 22.046266 28.639347 23.238684 29.936364 L 29.67147 36.468518 Z M 35.957818 29.936364 " stroke="#000000" stroke-width="6.624361" stroke-opacity="1" stroke-miterlimit="4"/></g><g fill="#8c52ff" fill-opacity="1"><g transform="translate(190.237387, 60.259372)"><g><path d="M 25.140625 -40.375 C 26.078125 -41.34375 27.132812 -42.0625 28.3125 -42.53125 C 29.488281 -43 30.664062 -43.234375 31.84375 -43.234375 C 33.632812 -43.234375 35.238281 -42.796875 36.65625 -41.921875 C 38.070312 -41.046875 39.195312 -39.878906 40.03125 -38.421875 C 40.863281 -36.960938 41.28125 -35.335938 41.28125 -33.546875 C 41.28125 -32.328125 41.054688 -31.117188 40.609375 -29.921875 C 40.160156 -28.722656 39.472656 -27.640625 38.546875 -26.671875 L 30.203125 -18.140625 L 30.203125 -9.6875 C 30.203125 -7.894531 29.765625 -6.269531 28.890625 -4.8125 C 28.015625 -3.351562 26.835938 -2.1875 25.359375 -1.3125 C 23.878906 -0.4375 22.242188 0 20.453125 0 C 18.710938 0 17.097656 -0.4375 15.609375 -1.3125 C 14.128906 -2.1875 12.953125 -3.351562 12.078125 -4.8125 C 11.210938 -6.269531 10.78125 -7.894531 10.78125 -9.6875 L 10.78125 -18.140625 L 2.4375 -26.671875 C 1.539062 -27.640625 0.859375 -28.722656 0.390625 -29.921875 C -0.0664062 -31.117188 -0.296875 -32.328125 -0.296875 -33.546875 C -0.296875 -35.335938 0.113281 -36.960938 0.9375 -38.421875 C 1.769531 -39.878906 2.894531 -41.046875 4.3125 -41.921875 C 5.738281 -42.796875 7.328125 -43.234375 9.078125 -43.234375 C 10.253906 -43.234375 11.421875 -43 12.578125 -42.53125 C 13.734375 -42.0625 14.757812 -41.34375 15.65625 -40.375 L 20.453125 -35.5 Z M 25.140625 -40.375 "/></g></g></g><g clip-path="url(#7d000fde5a)"><path stroke-linecap="butt" transform="matrix(0.733364, 0, 0, 0.733364, 160.874616, -3.411708)" fill="none" stroke-linejoin="miter" d="M 4.314974 39.077183 C 4.314974 34.895895 5.401576 31.689353 7.57478 29.462884 C 9.753311 27.231088 12.906588 26.117854 17.029285 26.117854 L 38.468372 26.117854 C 40.859962 26.117854 43.01186 26.69844 44.940047 27.870266 C 46.873559 29.036765 48.428892 30.586772 49.595391 32.525611 C 50.761891 34.44847 51.347804 36.605695 51.347804 38.997286 C 51.347804 41.820321 50.479587 44.403664 48.737828 46.736663 C 47.001395 49.074988 44.774926 50.651627 42.053094 51.477231 C 40.806697 51.743555 39.475077 51.871391 38.068886 51.871391 C 37.738644 51.97792 37.573523 52.185653 37.573523 52.489263 C 37.573523 52.782219 37.738644 52.926034 38.068886 52.926034 C 40.950512 53.368132 43.725609 53.096482 46.388849 52.111082 C 46.655174 52.830157 46.884212 53.623803 47.070639 54.502673 C 47.267719 55.365563 47.368922 56.255085 47.368922 57.165913 C 47.368922 59.514891 46.783009 61.66679 45.61651 63.616282 C 44.444684 65.565774 42.878698 67.13176 40.918553 68.314239 C 38.969061 69.480738 36.79053 70.066651 34.388287 70.066651 L 30.148408 70.066651 L 30.148408 71.121294 C 30.148408 73.45962 29.562495 75.606191 28.395996 77.571663 C 27.229496 79.521155 25.663511 81.081814 23.698039 82.248314 C 21.748547 83.414813 19.607301 84.000726 17.268976 84.000726 C 14.935977 84.000726 12.773426 83.414813 10.781322 82.248314 C 8.805197 81.081814 7.233885 79.521155 6.06206 77.571663 C 4.89556 75.606191 4.314974 73.45962 4.314974 71.121294 Z M 4.314974 39.077183 " stroke="#000000" stroke-width="6.624361" stroke-opacity="1" stroke-miterlimit="4"/></g><g fill="#8c52ff" fill-opacity="1"><g transform="translate(164.037248, 58.190874)"><g><path d="M 0 -32.953125 C 0 -36.015625 0.796875 -38.363281 2.390625 -40 C 3.984375 -41.632812 6.296875 -42.453125 9.328125 -42.453125 L 25.0625 -42.453125 C 26.8125 -42.453125 28.394531 -42.023438 29.8125 -41.171875 C 31.226562 -40.316406 32.363281 -39.179688 33.21875 -37.765625 C 34.070312 -36.347656 34.5 -34.765625 34.5 -33.015625 C 34.5 -30.929688 33.859375 -29.03125 32.578125 -27.3125 C 31.304688 -25.601562 29.675781 -24.453125 27.6875 -23.859375 C 26.769531 -23.660156 25.789062 -23.5625 24.75 -23.5625 C 24.507812 -23.476562 24.390625 -23.328125 24.390625 -23.109375 C 24.390625 -22.890625 24.507812 -22.78125 24.75 -22.78125 C 26.863281 -22.457031 28.898438 -22.65625 30.859375 -23.375 C 31.054688 -22.863281 31.222656 -22.285156 31.359375 -21.640625 C 31.503906 -21.003906 31.578125 -20.347656 31.578125 -19.671875 C 31.578125 -17.960938 31.144531 -16.390625 30.28125 -14.953125 C 29.425781 -13.515625 28.28125 -12.363281 26.84375 -11.5 C 25.414062 -10.644531 23.820312 -10.21875 22.0625 -10.21875 L 18.953125 -10.21875 L 18.953125 -9.453125 C 18.953125 -7.734375 18.523438 -6.15625 17.671875 -4.71875 C 16.816406 -3.289062 15.671875 -2.144531 14.234375 -1.28125 C 12.796875 -0.425781 11.21875 0 9.5 0 C 7.789062 0 6.207031 -0.425781 4.75 -1.28125 C 3.300781 -2.144531 2.144531 -3.289062 1.28125 -4.71875 C 0.425781 -6.15625 0 -7.734375 0 -9.453125 Z M 0 -32.953125 "/></g></g></g><g clip-path="url(#bea13c0c46)"><path stroke-linecap="butt" transform="matrix(0.714619, 0, 0, 0.714619, 140.638274, -2.343216)" fill="none" stroke-linejoin="miter" d="M 23.26745 83.998395 C 20.878719 83.998395 18.70317 83.402579 16.740804 82.210946 C 14.789369 81.013848 13.242434 79.428649 12.099997 77.449884 C 10.963027 75.460186 10.389076 73.295569 10.389076 70.961501 L 10.389076 38.913152 C 10.389076 36.524421 10.963027 34.370737 12.099997 32.446634 C 13.242434 30.511598 14.789369 28.970128 16.740804 27.827692 C 18.70317 26.685256 20.878719 26.11677 23.26745 26.11677 C 25.776437 26.11677 28.006648 26.685256 29.958083 27.827692 C 31.909517 28.970128 33.467385 30.511598 34.637152 32.446634 C 35.817852 34.370737 36.408202 36.524421 36.408202 38.913152 L 36.408202 70.961501 C 36.408202 73.295569 35.817852 75.460186 34.637152 77.449884 C 33.467385 79.428649 31.909517 81.013848 29.958083 82.210946 C 28.006648 83.402579 25.776437 83.998395 23.26745 83.998395 Z M 23.26745 83.998395 " stroke="#000000" stroke-width="6.624361" stroke-opacity="1" stroke-miterlimit="4"/></g><g fill="#8c52ff" fill-opacity="1"><g transform="translate(148.063607, 57.684741)"><g><path d="M 9.203125 0 C 7.492188 0 5.941406 -0.425781 4.546875 -1.28125 C 3.148438 -2.132812 2.039062 -3.269531 1.21875 -4.6875 C 0.40625 -6.101562 0 -7.648438 0 -9.328125 L 0 -32.21875 C 0 -33.925781 0.40625 -35.46875 1.21875 -36.84375 C 2.039062 -38.226562 3.148438 -39.328125 4.546875 -40.140625 C 5.941406 -40.960938 7.492188 -41.375 9.203125 -41.375 C 10.992188 -41.375 12.585938 -40.960938 13.984375 -40.140625 C 15.378906 -39.328125 16.492188 -38.226562 17.328125 -36.84375 C 18.171875 -35.46875 18.59375 -33.925781 18.59375 -32.21875 L 18.59375 -9.328125 C 18.59375 -7.648438 18.171875 -6.101562 17.328125 -4.6875 C 16.492188 -3.269531 15.378906 -2.132812 13.984375 -1.28125 C 12.585938 -0.425781 10.992188 0 9.203125 0 Z M 9.203125 0 "/></g></g></g><g clip-path="url(#3975c5f27f)"><path stroke-linecap="butt" transform="matrix(0.631217, 0, 0, 0.631217, 120.837787, 2.410683)" fill="none" stroke-linejoin="miter" d="M 21.359577 43.974246 L 35.549678 29.938856 C 38.099317 27.389217 41.119277 26.114398 44.609559 26.114398 C 46.99211 26.114398 49.176631 26.7023 51.156932 27.865727 C 53.143423 29.035343 54.727664 30.588642 55.891092 32.525625 C 57.060708 34.450231 57.642421 36.603809 57.642421 38.992549 C 57.642421 40.681994 57.320622 42.32812 56.670836 43.930927 C 56.021049 45.539922 55.06184 46.963264 53.805586 48.213329 L 22.671527 79.440215 C 21.303881 80.795485 19.793901 81.897027 18.135398 82.744844 C 16.476895 83.580284 14.694623 84.001098 12.80096 84.001098 C 10.622628 84.001098 8.568064 83.468892 6.631081 82.410668 C 4.706476 81.346256 3.116046 79.842464 1.872168 77.886916 C 0.622103 75.925179 -0.00292996 73.61689 -0.00292996 70.962048 L -0.00292996 38.992549 C -0.00292996 36.603809 0.622103 34.437854 1.872168 32.488495 C 3.116046 30.520569 4.718852 28.96727 6.668212 27.828597 C 8.629949 26.689923 10.703077 26.114398 12.881409 26.114398 C 16.247923 26.114398 19.007968 26.974591 21.161547 28.682602 C 23.308937 30.396801 24.763221 32.667959 25.518211 35.48989 L 20.623152 43.237821 C 20.406557 43.621504 20.425122 43.893796 20.660283 44.048507 C 20.914009 44.209407 21.142981 44.184653 21.359577 43.974246 Z M 21.359577 43.974246 " stroke="#000000" stroke-width="6.624361" stroke-opacity="1" stroke-miterlimit="4"/></g><g fill="#8c52ff" fill-opacity="1"><g transform="translate(120.837787, 55.432901)"><g><path d="M 13.484375 -25.265625 L 22.4375 -34.125 C 24.050781 -35.738281 25.957031 -36.546875 28.15625 -36.546875 C 29.664062 -36.546875 31.046875 -36.175781 32.296875 -35.4375 C 33.546875 -34.695312 34.539062 -33.71875 35.28125 -32.5 C 36.019531 -31.28125 36.390625 -29.914062 36.390625 -28.40625 C 36.390625 -27.34375 36.179688 -26.304688 35.765625 -25.296875 C 35.359375 -24.285156 34.757812 -23.382812 33.96875 -22.59375 L 14.3125 -2.875 C 13.445312 -2.019531 12.488281 -1.328125 11.4375 -0.796875 C 10.394531 -0.265625 9.273438 0 8.078125 0 C 6.703125 0 5.40625 -0.332031 4.1875 -1 C 2.976562 -1.664062 1.976562 -2.617188 1.1875 -3.859375 C 0.394531 -5.097656 0 -6.554688 0 -8.234375 L 0 -28.40625 C 0 -29.914062 0.394531 -31.285156 1.1875 -32.515625 C 1.976562 -33.753906 2.988281 -34.734375 4.21875 -35.453125 C 5.457031 -36.179688 6.757812 -36.546875 8.125 -36.546875 C 10.257812 -36.546875 12.003906 -36.003906 13.359375 -34.921875 C 14.710938 -33.835938 15.628906 -32.40625 16.109375 -30.625 L 13.015625 -25.734375 C 12.878906 -25.492188 12.890625 -25.320312 13.046875 -25.21875 C 13.203125 -25.113281 13.347656 -25.128906 13.484375 -25.265625 Z M 13.484375 -25.265625 "/></g></g></g><g clip-path="url(#5207207eba)"><path stroke-linecap="butt" transform="matrix(0.673028, 0, 0, 0.673028, 70.824535, -1.878418)" fill="none" stroke-linejoin="miter" d="M 73.774072 72.015206 C 73.774072 74.789515 73.176261 77.134327 71.980638 79.043841 C 70.79082 80.941746 69.20633 82.381136 67.244581 83.362011 C 65.29444 84.331277 63.175983 84.818813 60.895014 84.818813 C 59.211856 84.818813 57.563522 84.505397 55.961621 83.878566 C 54.353915 83.257539 52.926133 82.323096 51.678275 81.075238 L 37.667438 66.959929 C 37.545554 66.681338 37.365631 66.681338 37.127667 66.959929 C 36.889703 67.226913 36.825859 67.499701 36.930331 67.778292 L 41.567721 74.946222 C 40.96991 77.766962 39.478284 80.123383 37.087039 82.009681 C 34.701598 83.878566 31.979526 84.818813 28.926626 84.818813 C 26.541186 84.818813 24.347277 84.232609 22.362311 83.066007 C 20.38315 81.899405 18.810268 80.338131 17.643666 78.38799 C 16.477064 76.420436 15.89086 74.220723 15.89086 71.777243 L 15.89086 39.153004 C 15.89086 36.767563 16.477064 34.59687 17.643666 32.646729 C 18.810268 30.679176 20.38315 29.10049 22.362311 27.910672 C 24.347277 26.715049 26.541186 26.117238 28.926626 26.117238 C 30.89418 26.117238 32.745653 26.56995 34.481047 27.469568 C 36.222244 28.357579 37.68485 29.425514 38.880472 30.673372 L 52.177418 43.732354 C 52.28189 43.947101 52.45601 43.970317 52.693973 43.81361 C 52.949349 43.63949 53.018997 43.447958 52.914525 43.23321 L 48.097212 36.227792 C 48.532511 34.370515 49.350874 32.687357 50.546496 31.172515 C 51.736315 29.646065 53.216333 28.427227 54.980746 27.510196 C 56.750964 26.581558 58.637261 26.117238 60.65705 26.117238 C 63.53583 26.117238 65.938683 26.715049 67.859804 27.910672 C 69.798337 29.10049 71.266747 30.679176 72.25923 32.646729 C 73.269125 34.59687 73.774072 36.767563 73.774072 39.153004 Z M 73.774072 72.015206 " stroke="#000000" stroke-width="6.624361" stroke-opacity="1" stroke-miterlimit="4"/></g><g fill="#8c52ff" fill-opacity="1"><g transform="translate(81.519373, 54.655947)"><g><path d="M 38.96875 -8.0625 C 38.96875 -6.195312 38.5625 -4.625 37.75 -3.34375 C 36.945312 -2.0625 35.882812 -1.09375 34.5625 -0.4375 C 33.25 0.21875 31.828125 0.546875 30.296875 0.546875 C 29.160156 0.546875 28.050781 0.335938 26.96875 -0.078125 C 25.894531 -0.503906 24.9375 -1.132812 24.09375 -1.96875 L 14.65625 -11.46875 C 14.582031 -11.65625 14.460938 -11.65625 14.296875 -11.46875 C 14.128906 -11.28125 14.082031 -11.097656 14.15625 -10.921875 L 17.28125 -6.09375 C 16.882812 -4.1875 15.878906 -2.601562 14.265625 -1.34375 C 12.660156 -0.0820312 10.832031 0.546875 8.78125 0.546875 C 7.164062 0.546875 5.691406 0.15625 4.359375 -0.625 C 3.023438 -1.414062 1.960938 -2.46875 1.171875 -3.78125 C 0.390625 -5.101562 0 -6.585938 0 -8.234375 L 0 -30.1875 C 0 -31.789062 0.390625 -33.25 1.171875 -34.5625 C 1.960938 -35.882812 3.023438 -36.945312 4.359375 -37.75 C 5.691406 -38.5625 7.164062 -38.96875 8.78125 -38.96875 C 10.09375 -38.96875 11.332031 -38.664062 12.5 -38.0625 C 13.675781 -37.457031 14.664062 -36.734375 15.46875 -35.890625 L 24.421875 -27.109375 C 24.492188 -26.960938 24.609375 -26.941406 24.765625 -27.046875 C 24.929688 -27.160156 24.976562 -27.289062 24.90625 -27.4375 L 21.671875 -32.15625 C 21.960938 -33.394531 22.507812 -34.523438 23.3125 -35.546875 C 24.125 -36.578125 25.125 -37.40625 26.3125 -38.03125 C 27.5 -38.65625 28.769531 -38.96875 30.125 -38.96875 C 32.0625 -38.96875 33.679688 -38.5625 34.984375 -37.75 C 36.285156 -36.945312 37.273438 -35.882812 37.953125 -34.5625 C 38.628906 -33.25 38.96875 -31.789062 38.96875 -30.1875 Z M 38.96875 -8.0625 "/></g></g></g><g clip-path="url(#b4f1a283b0)"><path stroke-linecap="butt" transform="matrix(0.641752, 0, 0, 0.641752, 47.610974, -0.0956596)" fill="none" stroke-linejoin="miter" d="M 29.597886 26.115585 C 33.669992 26.115585 37.516885 26.882528 41.120303 28.404242 C 44.748069 29.919869 47.913233 32.019834 50.615797 34.716311 C 53.336621 37.406701 55.473108 40.535345 57.025256 44.090068 C 58.577404 47.644792 59.356521 51.46125 59.356521 55.533356 C 59.356521 59.623723 58.577404 63.446268 57.025256 67.000991 C 55.473108 70.555715 53.336621 73.672185 50.615797 76.338227 C 47.913233 79.00427 44.748069 81.085974 41.120303 82.589428 C 37.516885 84.07462 33.669992 84.817217 29.597886 84.817217 C 25.580562 84.817217 21.77019 84.07462 18.172859 82.589428 C 14.587701 81.085974 11.440797 79.00427 8.719973 76.338227 C 5.999148 73.672185 3.862662 70.555715 2.310514 67.000991 C 0.77054 63.446268 -0.00249106 59.623723 -0.00249106 55.533356 C -0.00249106 51.46125 0.77054 47.644792 2.310514 44.090068 C 3.862662 40.535345 5.999148 37.406701 8.719973 34.716311 C 11.440797 32.019834 14.587701 29.919869 18.172859 28.404242 C 21.77019 26.882528 25.580562 26.115585 29.597886 26.115585 Z M 29.597886 51.954285 C 28.776161 51.954285 28.039651 52.252541 27.388358 52.849053 C 26.737064 53.445565 26.414461 54.261203 26.414461 55.295969 C 26.414461 56.227258 26.737064 57.030722 27.388358 57.706363 C 28.039651 58.382004 28.776161 58.722868 29.597886 58.722868 C 30.517001 58.722868 31.308292 58.382004 31.99002 57.706363 C 32.677835 57.030722 33.024786 56.227258 33.024786 55.295969 C 33.024786 54.261203 32.677835 53.445565 31.99002 52.849053 C 31.308292 52.252541 30.517001 51.954285 29.597886 51.954285 Z M 29.597886 51.954285 " stroke="#000000" stroke-width="6.624361" stroke-opacity="1" stroke-miterlimit="4"/></g><g fill="#8c52ff" fill-opacity="1"><g transform="translate(47.610974, 53.811487)"><g><path d="M 19 -37.15625 C 21.613281 -37.15625 24.078125 -36.664062 26.390625 -35.6875 C 28.710938 -34.707031 30.742188 -33.351562 32.484375 -31.625 C 34.234375 -29.90625 35.601562 -27.898438 36.59375 -25.609375 C 37.59375 -23.328125 38.09375 -20.878906 38.09375 -18.265625 C 38.09375 -15.648438 37.59375 -13.195312 36.59375 -10.90625 C 35.601562 -8.625 34.234375 -6.628906 32.484375 -4.921875 C 30.742188 -3.210938 28.710938 -1.878906 26.390625 -0.921875 C 24.078125 0.0351562 21.613281 0.515625 19 0.515625 C 16.414062 0.515625 13.972656 0.0351562 11.671875 -0.921875 C 9.367188 -1.878906 7.34375 -3.210938 5.59375 -4.921875 C 3.851562 -6.628906 2.484375 -8.625 1.484375 -10.90625 C 0.492188 -13.195312 0 -15.648438 0 -18.265625 C 0 -20.878906 0.492188 -23.328125 1.484375 -25.609375 C 2.484375 -27.898438 3.851562 -29.90625 5.59375 -31.625 C 7.34375 -33.351562 9.367188 -34.707031 11.671875 -35.6875 C 13.972656 -36.664062 16.414062 -37.15625 19 -37.15625 Z M 19 -20.5625 C 18.46875 -20.5625 17.992188 -20.367188 17.578125 -19.984375 C 17.160156 -19.597656 16.953125 -19.078125 16.953125 -18.421875 C 16.953125 -17.828125 17.160156 -17.3125 17.578125 -16.875 C 17.992188 -16.4375 18.46875 -16.21875 19 -16.21875 C 19.59375 -16.21875 20.101562 -16.4375 20.53125 -16.875 C 20.96875 -17.3125 21.1875 -17.828125 21.1875 -18.421875 C 21.1875 -19.078125 20.96875 -19.597656 20.53125 -19.984375 C 20.101562 -20.367188 19.59375 -20.5625 19 -20.5625 Z M 19 -20.5625 "/></g></g></g><g clip-path="url(#2c9ef5125a)"><path stroke-linecap="butt" transform="matrix(0.780246, 0, 0, 0.780246, 10.318955, -5.649115)" fill="none" stroke-linejoin="miter" d="M 27.632235 25.058058 L 38.45614 25.058058 C 40.889266 25.058058 43.082083 25.65883 45.034591 26.870386 C 46.997112 28.076936 48.574138 29.678994 49.755656 31.666548 C 50.952193 33.659107 51.552965 35.811873 51.552965 38.129851 C 51.552965 40.562976 50.952193 42.770813 49.755656 44.763372 C 48.574138 46.740913 46.997112 48.307926 45.034591 49.469418 C 43.082083 50.625904 40.889266 51.20665 38.45614 51.20665 C 36.553696 51.20665 34.841496 50.91127 33.319541 50.315505 C 31.79258 49.724746 30.440843 49.429367 29.254319 49.429367 C 28.423251 49.429367 27.712338 49.724746 27.121579 50.315505 C 26.53082 50.91127 26.230434 51.622184 26.230434 52.453251 C 26.230434 53.219235 26.53082 53.875078 27.121579 54.415772 C 27.712338 54.961473 28.423251 55.231821 29.254319 55.231821 C 30.440843 55.231821 31.79258 54.931435 33.319541 54.340676 C 34.841496 53.749917 36.553696 53.454538 38.45614 53.454538 C 40.889266 53.454538 43.082083 54.075335 45.034591 55.321936 C 46.997112 56.558525 48.574138 58.195628 49.755656 60.238252 C 50.952193 62.265857 51.552965 64.493719 51.552965 66.926845 C 51.552965 69.244822 50.952193 71.397588 49.755656 73.385141 C 48.574138 75.362682 46.997112 76.96474 45.034591 78.186309 C 43.082083 79.397866 40.889266 79.998637 38.45614 79.998637 L 27.251746 79.998637 C 23.536974 79.998637 20.047491 79.267698 16.783298 77.80582 C 13.534124 76.33393 10.655426 74.306325 8.15221 71.723006 C 5.659007 69.144694 3.711505 66.200912 2.314711 62.901674 C 0.927929 59.602435 0.232035 56.117959 0.232035 52.453251 C 0.232035 48.63835 0.937942 45.063758 2.349756 41.739488 C 3.771582 38.400198 5.749123 35.486455 8.282377 32.993252 C 10.815632 30.48503 13.729375 28.537528 17.03362 27.155753 C 20.332858 25.753952 23.862392 25.058058 27.632235 25.058058 Z M 27.632235 25.058058 " stroke="#000000" stroke-width="6.28836" stroke-opacity="1" stroke-miterlimit="4"/></g><g fill="#8c52ff" fill-opacity="1"><g transform="translate(10.501825, 56.770594)"><g><path d="M 21.375 -42.875 L 29.828125 -42.875 C 31.722656 -42.875 33.4375 -42.398438 34.96875 -41.453125 C 36.5 -40.503906 37.722656 -39.253906 38.640625 -37.703125 C 39.566406 -36.160156 40.03125 -34.484375 40.03125 -32.671875 C 40.03125 -30.773438 39.566406 -29.050781 38.640625 -27.5 C 37.722656 -25.957031 36.5 -24.734375 34.96875 -23.828125 C 33.4375 -22.921875 31.722656 -22.46875 29.828125 -22.46875 C 28.335938 -22.46875 27 -22.695312 25.8125 -23.15625 C 24.625 -23.625 23.566406 -23.859375 22.640625 -23.859375 C 22.003906 -23.859375 21.453125 -23.625 20.984375 -23.15625 C 20.523438 -22.695312 20.296875 -22.144531 20.296875 -21.5 C 20.296875 -20.894531 20.523438 -20.378906 20.984375 -19.953125 C 21.453125 -19.535156 22.003906 -19.328125 22.640625 -19.328125 C 23.566406 -19.328125 24.625 -19.554688 25.8125 -20.015625 C 27 -20.484375 28.335938 -20.71875 29.828125 -20.71875 C 31.722656 -20.71875 33.4375 -20.234375 34.96875 -19.265625 C 36.5 -18.296875 37.722656 -17.015625 38.640625 -15.421875 C 39.566406 -13.835938 40.03125 -12.097656 40.03125 -10.203125 C 40.03125 -8.390625 39.566406 -6.707031 38.640625 -5.15625 C 37.722656 -3.613281 36.5 -2.367188 34.96875 -1.421875 C 33.4375 -0.472656 31.722656 0 29.828125 0 L 21.078125 0 C 18.179688 0 15.460938 -0.570312 12.921875 -1.71875 C 10.390625 -2.863281 8.144531 -4.441406 6.1875 -6.453125 C 4.238281 -8.472656 2.71875 -10.769531 1.625 -13.34375 C 0.539062 -15.925781 0 -18.644531 0 -21.5 C 0 -24.476562 0.550781 -27.265625 1.65625 -29.859375 C 2.769531 -32.460938 4.3125 -34.738281 6.28125 -36.6875 C 8.25 -38.632812 10.519531 -40.148438 13.09375 -41.234375 C 15.675781 -42.328125 18.4375 -42.875 21.375 -42.875 Z M 21.375 -42.875 "/></g></g></g></svg>