<svg xmlns="http://www.w3.org/2000/svg" xmlns:xlink="http://www.w3.org/1999/xlink" width="350" zoomAndPan="magnify" viewBox="0 0 262.5 112.499997" height="150" preserveAspectRatio="xMidYMid meet" version="1.0"><defs><g/><clipPath id="5dca96c525"><path d="M 184 31 L 261.671875 31 L 261.671875 112.003906 L 184 112.003906 Z M 184 31 " clip-rule="nonzero"/></clipPath><clipPath id="f7caa06096"><path d="M 148 29 L 248 29 L 248 112.003906 L 148 112.003906 Z M 148 29 " clip-rule="nonzero"/></clipPath><clipPath id="4cec5c74d4"><path d="M 119 32 L 211 32 L 211 112.003906 L 119 112.003906 Z M 119 32 " clip-rule="nonzero"/></clipPath><clipPath id="9cee68cc2e"><path d="M 99 38 L 187 38 L 187 112.003906 L 99 112.003906 Z M 99 38 " clip-rule="nonzero"/></clipPath><clipPath id="48e136526a"><path d="M 55 33 L 150 33 L 150 112.003906 L 55 112.003906 Z M 55 33 " clip-rule="nonzero"/></clipPath><clipPath id="385d2ae49a"><path d="M 18 35 L 109 35 L 109 112.003906 L 18 112.003906 Z M 18 35 " clip-rule="nonzero"/></clipPath><clipPath id="df3ea89ced"><path d="M 0.332031 28 L 75 28 L 75 112.003906 L 0.332031 112.003906 Z M 0.332031 28 " clip-rule="nonzero"/></clipPath><clipPath id="0ec4104d7c"><path d="M 182 0 L 261.671875 0 L 261.671875 80 L 182 80 Z M 182 0 " clip-rule="nonzero"/></clipPath><clipPath id="bb92055763"><path d="M 0.332031 0 L 84 0 L 84 84 L 0.332031 84 Z M 0.332031 0 " clip-rule="nonzero"/></clipPath></defs><g clip-path="url(#5dca96c525)"><path stroke-linecap="butt" transform="matrix(0.780531, 0, 0, 0.780531, 208.92255, 40.370502)" fill="none" stroke-linejoin="miter" d="M 44.409999 26.114786 C 46.852246 26.114786 49.059277 26.715339 51.0411 27.906435 C 53.027929 29.102535 54.609384 30.694 55.775457 32.685833 C 56.956543 34.662652 57.547087 36.844659 57.547087 39.231856 C 57.547087 41.569006 56.976562 43.705973 55.835512 45.642755 C 54.694462 47.569528 53.153044 49.12596 51.216262 50.32206 C 49.294493 51.513156 47.102476 52.113709 44.65022 52.113709 L 44.750312 71.696728 C 44.750312 74.088929 44.144755 76.290955 42.938645 78.307811 C 41.742544 80.309653 40.15108 81.911127 38.159247 83.102223 C 36.182428 84.298323 34.000421 84.893871 31.613224 84.893871 C 29.276073 84.893871 27.124093 84.298323 25.162288 83.102223 C 23.210492 81.911127 21.65406 80.309653 20.482983 78.307811 C 19.31691 76.290955 18.731371 74.088929 18.731371 71.696728 L 18.731371 52.113709 C 16.344174 52.113709 14.167171 51.513156 12.205366 50.32206 C 10.25357 49.12596 8.707147 47.569528 7.566097 45.642755 C 6.425047 43.705973 5.854522 41.569006 5.854522 39.231856 C 5.854522 36.844659 6.425047 34.662652 7.566097 32.685833 C 8.707147 30.694 10.25357 29.102535 12.205366 27.906435 C 14.167171 26.715339 16.344174 26.114786 18.731371 26.114786 Z M 44.409999 26.114786 " stroke="#000000" stroke-width="6.624361" stroke-opacity="1" stroke-miterlimit="4"/></g><g fill="#8c52ff" fill-opacity="1"><g transform="translate(213.678912, 105.935118)"><g><path d="M 29.90625 -45.1875 C 31.820312 -45.1875 33.550781 -44.71875 35.09375 -43.78125 C 36.644531 -42.851562 37.875 -41.613281 38.78125 -40.0625 C 39.695312 -38.507812 40.15625 -36.800781 40.15625 -34.9375 C 40.15625 -33.113281 39.707031 -31.445312 38.8125 -29.9375 C 37.925781 -28.4375 36.726562 -27.21875 35.21875 -26.28125 C 33.71875 -25.351562 32.015625 -24.890625 30.109375 -24.890625 L 30.171875 -9.609375 C 30.171875 -7.742188 29.703125 -6.023438 28.765625 -4.453125 C 27.828125 -2.878906 26.582031 -1.625 25.03125 -0.6875 C 23.488281 0.238281 21.785156 0.703125 19.921875 0.703125 C 18.097656 0.703125 16.421875 0.238281 14.890625 -0.6875 C 13.359375 -1.625 12.132812 -2.878906 11.21875 -4.453125 C 10.3125 -6.023438 9.859375 -7.742188 9.859375 -9.609375 L 9.859375 -24.890625 C 7.992188 -24.890625 6.296875 -25.351562 4.765625 -26.28125 C 3.242188 -27.21875 2.035156 -28.4375 1.140625 -29.9375 C 0.253906 -31.445312 -0.1875 -33.113281 -0.1875 -34.9375 C -0.1875 -36.800781 0.253906 -38.507812 1.140625 -40.0625 C 2.035156 -41.613281 3.242188 -42.851562 4.765625 -43.78125 C 6.296875 -44.71875 7.992188 -45.1875 9.859375 -45.1875 Z M 29.90625 -45.1875 "/></g></g></g><g clip-path="url(#f7caa06096)"><path stroke-linecap="butt" transform="matrix(0.766379, 0, 0, 0.766379, 175.740702, 38.572119)" fill="none" stroke-linejoin="miter" d="M 14.426502 84.001611 C 12.092067 84.001611 9.941125 83.40526 7.973676 82.207461 C 6.026615 81.014758 4.451636 79.414294 3.258933 77.411166 C 2.066231 75.392746 1.464783 73.185737 1.464783 70.785041 L 1.464783 38.994934 C 1.464783 36.604432 2.066231 34.438199 3.258933 32.486041 C 4.451636 30.523689 6.0521 28.969098 8.055228 27.827366 C 10.073648 26.685634 12.27556 26.114768 14.666062 26.114768 L 32.938874 26.114768 C 36.149996 26.114768 39.15214 26.716216 41.955501 27.908918 C 44.753764 29.101621 47.210527 30.763249 49.320693 32.883609 C 51.441053 35.009066 53.102681 37.470926 54.295384 40.269189 C 55.488086 43.057258 56.084437 46.054305 56.084437 49.265427 C 56.084437 53.236005 55.202653 56.900762 53.439084 60.274988 C 51.675516 63.644118 49.244238 66.416896 46.155444 68.593323 C 45.926079 68.70036 45.895496 68.894047 46.053504 69.169286 C 46.226803 69.434331 46.420489 69.515884 46.629467 69.408846 C 47.985274 68.812495 49.285014 68.06833 50.533784 67.181449 C 51.792747 66.279276 52.939577 65.224194 53.974271 64.0162 C 55.819392 66.630971 56.589042 69.403749 56.283221 72.334535 C 55.992691 75.270418 54.67766 77.910674 52.343225 80.260399 C 51.150523 81.453102 49.738649 82.375662 48.102506 83.022984 C 46.47146 83.675402 44.814928 84.001611 43.127815 84.001611 C 39.758686 84.001611 36.87887 82.615222 34.488368 79.842444 L 27.485064 71.860512 C 27.362736 74.13888 26.70522 76.192978 25.512518 78.007517 C 24.319815 79.827153 22.765225 81.279803 20.853843 82.365468 C 18.957752 83.45623 16.811907 84.001611 14.426502 84.001611 Z M 28.937715 46.660851 C 28.392334 46.660851 27.908117 46.79847 27.485064 47.078806 L 27.485064 52.609072 C 27.694042 52.716109 27.908117 52.78237 28.122192 52.807856 C 28.34646 52.833341 28.616602 52.848632 28.937715 52.848632 C 29.809305 52.848632 30.522887 52.563199 31.063171 51.992333 C 31.608552 51.421466 31.883791 50.707884 31.883791 49.841391 C 31.883791 48.9698 31.608552 48.215441 31.063171 47.593605 C 30.522887 46.971769 29.809305 46.660851 28.937715 46.660851 Z M 28.937715 46.660851 " stroke="#000000" stroke-width="6.624361" stroke-opacity="1" stroke-miterlimit="4"/></g><g fill="#8c52ff" fill-opacity="1"><g transform="translate(176.926195, 102.947984)"><g><path d="M 9.875 0 C 8.082031 0 6.4375 -0.457031 4.9375 -1.375 C 3.4375 -2.289062 2.226562 -3.519531 1.3125 -5.0625 C 0.394531 -6.601562 -0.0625 -8.289062 -0.0625 -10.125 L -0.0625 -34.484375 C -0.0625 -36.316406 0.394531 -37.984375 1.3125 -39.484375 C 2.226562 -40.984375 3.457031 -42.171875 5 -43.046875 C 6.539062 -43.921875 8.226562 -44.359375 10.0625 -44.359375 L 24.0625 -44.359375 C 26.519531 -44.359375 28.816406 -43.898438 30.953125 -42.984375 C 33.097656 -42.066406 34.984375 -40.796875 36.609375 -39.171875 C 38.234375 -37.546875 39.503906 -35.660156 40.421875 -33.515625 C 41.335938 -31.378906 41.796875 -29.082031 41.796875 -26.625 C 41.796875 -23.582031 41.117188 -20.769531 39.765625 -18.1875 C 38.410156 -15.601562 36.546875 -13.476562 34.171875 -11.8125 C 34.003906 -11.726562 33.984375 -11.582031 34.109375 -11.375 C 34.234375 -11.164062 34.378906 -11.101562 34.546875 -11.1875 C 35.585938 -11.644531 36.585938 -12.21875 37.546875 -12.90625 C 38.503906 -13.59375 39.378906 -14.394531 40.171875 -15.3125 C 41.585938 -13.3125 42.179688 -11.1875 41.953125 -8.9375 C 41.722656 -6.6875 40.710938 -4.664062 38.921875 -2.875 C 38.003906 -1.957031 36.921875 -1.25 35.671875 -0.75 C 34.421875 -0.25 33.148438 0 31.859375 0 C 29.285156 0 27.082031 -1.0625 25.25 -3.1875 L 19.875 -9.3125 C 19.789062 -7.5625 19.289062 -5.988281 18.375 -4.59375 C 17.457031 -3.195312 16.269531 -2.082031 14.8125 -1.25 C 13.351562 -0.414062 11.707031 0 9.875 0 Z M 21 -28.625 C 20.582031 -28.625 20.207031 -28.519531 19.875 -28.3125 L 19.875 -24.0625 C 20.039062 -23.976562 20.207031 -23.925781 20.375 -23.90625 C 20.539062 -23.882812 20.75 -23.875 21 -23.875 C 21.664062 -23.875 22.207031 -24.09375 22.625 -24.53125 C 23.039062 -24.96875 23.25 -25.519531 23.25 -26.1875 C 23.25 -26.851562 23.039062 -27.425781 22.625 -27.90625 C 22.207031 -28.382812 21.664062 -28.625 21 -28.625 Z M 21 -28.625 "/></g></g></g><g clip-path="url(#4cec5c74d4)"><path stroke-linecap="butt" transform="matrix(0.74679, 0, 0, 0.74679, 145.998663, 40.645601)" fill="none" stroke-linejoin="miter" d="M 1.346086 39.23421 C 1.346086 36.791463 1.900542 34.584098 3.014686 32.606886 C 4.12883 30.613981 5.677123 29.034303 7.654336 27.867852 C 9.64201 26.701401 11.912143 26.11556 14.459505 26.11556 L 35.759003 26.11556 C 38.306365 26.11556 40.529421 26.738016 42.428173 27.988159 C 44.337387 29.23307 45.817681 30.854594 46.863825 32.842268 C 47.925662 34.819481 48.459195 36.927462 48.459195 39.155749 C 48.459195 41.436344 47.9152 43.533863 46.82721 45.443077 C 45.749681 47.341828 44.21708 48.863968 42.229406 50.004266 C 40.252193 51.144563 37.877445 51.767019 35.099932 51.871633 C 34.822704 51.871633 34.686705 52.028555 34.686705 52.331937 C 34.686705 52.624857 34.822704 52.823625 35.099932 52.928239 C 37.33345 53.205467 39.498969 53.059007 41.612181 52.488859 C 43.735854 51.91871 45.613683 50.794105 47.245668 49.104582 C 48.051199 50.898719 48.459195 52.802702 48.459195 54.82176 C 48.459195 58.614034 47.303206 61.626929 44.996457 63.855217 C 42.684479 66.083504 39.661121 67.417338 35.915925 67.856719 C 35.638697 67.856719 35.502698 68.024102 35.502698 68.353637 C 35.502698 68.672711 35.638697 68.834864 35.915925 68.834864 C 38.029136 69.059785 40.090041 68.897632 42.109099 68.353637 C 44.128158 67.809642 45.890911 66.63796 47.402589 64.833362 C 47.84197 65.54997 48.150583 66.34504 48.338889 67.218571 C 48.537656 68.08164 48.63704 69.384089 48.63704 71.120689 C 48.63704 72.370831 48.391196 73.74128 47.899508 75.242497 C 47.40782 76.728022 46.633673 78.140317 45.571837 79.479382 C 44.51 80.807985 43.176166 81.895975 41.570335 82.748583 C 39.980195 83.580268 38.039598 83.998725 35.759003 83.998725 L 14.302583 83.998725 C 11.912143 83.998725 9.725702 83.418115 7.732797 82.246434 C 5.755584 81.079983 4.196829 79.521228 3.056532 77.570169 C 1.916234 75.608648 1.346086 73.458821 1.346086 71.120689 Z M 1.346086 39.23421 " stroke="#000000" stroke-width="6.624361" stroke-opacity="1" stroke-miterlimit="4"/></g><g fill="#8c52ff" fill-opacity="1"><g transform="translate(147.002162, 103.375952)"><g><path d="M 0 -33.421875 C 0 -35.253906 0.414062 -36.910156 1.25 -38.390625 C 2.082031 -39.867188 3.238281 -41.046875 4.71875 -41.921875 C 6.195312 -42.796875 7.890625 -43.234375 9.796875 -43.234375 L 25.703125 -43.234375 C 27.609375 -43.234375 29.269531 -42.765625 30.6875 -41.828125 C 32.101562 -40.898438 33.207031 -39.691406 34 -38.203125 C 34.789062 -36.722656 35.1875 -35.148438 35.1875 -33.484375 C 35.1875 -31.785156 34.78125 -30.222656 33.96875 -28.796875 C 33.164062 -27.378906 32.019531 -26.242188 30.53125 -25.390625 C 29.050781 -24.535156 27.273438 -24.066406 25.203125 -23.984375 C 25.003906 -23.984375 24.90625 -23.875 24.90625 -23.65625 C 24.90625 -23.4375 25.003906 -23.285156 25.203125 -23.203125 C 26.867188 -22.992188 28.492188 -23.101562 30.078125 -23.53125 C 31.660156 -23.957031 33.0625 -24.800781 34.28125 -26.0625 C 34.882812 -24.71875 35.1875 -23.296875 35.1875 -21.796875 C 35.1875 -18.953125 34.320312 -16.695312 32.59375 -15.03125 C 30.875 -13.375 28.613281 -12.382812 25.8125 -12.0625 C 25.613281 -12.0625 25.515625 -11.9375 25.515625 -11.6875 C 25.515625 -11.445312 25.613281 -11.328125 25.8125 -11.328125 C 27.394531 -11.160156 28.9375 -11.28125 30.4375 -11.6875 C 31.945312 -12.09375 33.269531 -12.96875 34.40625 -14.3125 C 34.726562 -13.78125 34.957031 -13.1875 35.09375 -12.53125 C 35.238281 -11.882812 35.3125 -10.914062 35.3125 -9.625 C 35.3125 -8.6875 35.128906 -7.660156 34.765625 -6.546875 C 34.398438 -5.429688 33.820312 -4.375 33.03125 -3.375 C 32.238281 -2.382812 31.242188 -1.570312 30.046875 -0.9375 C 28.847656 -0.3125 27.398438 0 25.703125 0 L 9.6875 0 C 7.894531 0 6.257812 -0.4375 4.78125 -1.3125 C 3.300781 -2.1875 2.132812 -3.351562 1.28125 -4.8125 C 0.425781 -6.269531 0 -7.875 0 -9.625 Z M 0 -33.421875 "/></g></g></g><g clip-path="url(#9cee68cc2e)"><path stroke-linecap="butt" transform="matrix(0.659633, 0, 0, 0.659633, 124.185197, 45.61351)" fill="none" stroke-linejoin="miter" d="M 21.357679 43.969383 L 35.552351 29.940522 C 38.098746 27.388205 41.118889 26.115008 44.606858 26.115008 C 46.993364 26.115008 49.178526 26.701271 51.156424 27.867875 C 53.146165 29.034479 54.727299 30.586004 55.893903 32.52837 C 57.060507 34.452971 57.64677 36.608524 57.64677 38.99503 C 57.64677 40.682757 57.321069 42.323109 56.669665 43.933852 C 56.018262 45.538673 55.064844 46.965839 53.80349 48.209427 L 22.672329 79.441259 C 21.304382 80.797363 19.794311 81.898827 18.136193 82.745651 C 16.472153 83.580632 14.695598 84.001083 12.800607 84.001083 C 10.621366 84.001083 8.566485 83.468117 6.63004 82.408106 C 4.705439 81.348095 3.118383 79.838023 1.868873 77.889735 C 0.625285 75.923681 -0.00243104 73.61416 -0.00243104 70.961171 L -0.00243104 38.99503 C -0.00243104 36.608524 0.625285 34.435206 1.868873 32.486917 C 3.118383 30.520864 4.717283 28.969339 6.665571 27.826422 C 8.631625 26.689427 10.704272 26.115008 12.877591 26.115008 C 16.247123 26.115008 19.006705 26.973676 21.156336 28.68509 C 23.305967 30.396505 24.762742 32.664573 25.520739 35.489295 L 20.623369 43.235074 C 20.410183 43.619994 20.422027 43.892399 20.658901 44.052289 C 20.91354 44.212179 21.144492 44.18257 21.357679 43.969383 Z M 21.357679 43.969383 " stroke="#000000" stroke-width="6.624361" stroke-opacity="1" stroke-miterlimit="4"/></g><g fill="#8c52ff" fill-opacity="1"><g transform="translate(124.185197, 101.022723)"><g><path d="M 14.09375 -26.40625 L 23.453125 -35.65625 C 25.128906 -37.34375 27.117188 -38.1875 29.421875 -38.1875 C 30.992188 -38.1875 32.429688 -37.800781 33.734375 -37.03125 C 35.046875 -36.257812 36.085938 -35.234375 36.859375 -33.953125 C 37.628906 -32.679688 38.015625 -31.257812 38.015625 -29.6875 C 38.015625 -28.570312 37.800781 -27.484375 37.375 -26.421875 C 36.945312 -25.367188 36.320312 -24.429688 35.5 -23.609375 L 14.953125 -3.015625 C 14.054688 -2.117188 13.0625 -1.390625 11.96875 -0.828125 C 10.875 -0.273438 9.695312 0 8.4375 0 C 7.007812 0 5.65625 -0.347656 4.375 -1.046875 C 3.101562 -1.742188 2.054688 -2.738281 1.234375 -4.03125 C 0.410156 -5.320312 0 -6.847656 0 -8.609375 L 0 -29.6875 C 0 -31.257812 0.410156 -32.691406 1.234375 -33.984375 C 2.054688 -35.273438 3.113281 -36.296875 4.40625 -37.046875 C 5.695312 -37.804688 7.0625 -38.1875 8.5 -38.1875 C 10.71875 -38.1875 12.535156 -37.617188 13.953125 -36.484375 C 15.367188 -35.359375 16.328125 -33.863281 16.828125 -32 L 13.609375 -26.890625 C 13.460938 -26.640625 13.46875 -26.457031 13.625 -26.34375 C 13.789062 -26.238281 13.945312 -26.257812 14.09375 -26.40625 Z M 14.09375 -26.40625 "/></g></g></g><g clip-path="url(#48e136526a)"><path stroke-linecap="butt" transform="matrix(0.703327, 0, 0, 0.703327, 69.087391, 41.131319)" fill="none" stroke-linejoin="miter" d="M 76.276008 72.014757 C 76.276008 74.791737 75.676181 77.135507 74.482079 79.046069 C 73.287978 80.939969 71.710654 82.378445 69.744552 83.361496 C 67.795113 84.333438 65.679054 84.816633 63.396377 84.816633 C 61.707973 84.816633 60.064001 84.505611 58.458907 83.878014 C 56.853813 83.25597 55.426446 82.322905 54.176805 81.073264 L 40.164166 66.960654 C 40.047533 66.682956 39.869806 66.682956 39.630986 66.960654 C 39.392166 67.227244 39.325518 67.499388 39.431043 67.777086 L 44.068599 74.941694 C 43.468772 77.768659 41.980311 80.123537 39.586554 82.011883 C 37.198352 83.878014 34.482466 84.816633 31.427788 84.816633 C 29.039586 84.816633 26.851326 84.233467 24.857455 83.067136 C 22.880245 81.89525 21.308475 80.340142 20.142143 78.385148 C 18.975812 76.424601 18.392646 74.219679 18.392646 71.775937 L 18.392646 39.151981 C 18.392646 36.763779 18.975812 34.597735 20.142143 32.648295 C 21.308475 30.682193 22.880245 29.104869 24.857455 27.910768 C 26.851326 26.716667 29.039586 26.116839 31.427788 26.116839 C 33.39389 26.116839 35.243358 26.56671 36.981747 27.472005 C 38.720137 28.360638 40.186382 29.426999 41.380483 30.676639 L 54.676661 43.733997 C 54.782186 43.945048 54.954359 43.972818 55.193179 43.811753 C 55.448661 43.63958 55.520863 43.445191 55.415338 43.234141 L 50.594501 36.230598 C 51.033264 34.370022 51.849696 32.687173 53.043797 31.170942 C 54.237898 29.649157 55.720805 28.427286 57.48141 27.510883 C 59.247569 26.583372 61.14147 26.116839 63.157557 26.116839 C 66.034508 26.116839 68.439372 26.716667 70.361042 27.910768 C 72.299373 29.104869 73.765619 30.682193 74.759777 32.648295 C 75.770598 34.597735 76.276008 36.763779 76.276008 39.151981 Z M 76.276008 72.014757 " stroke="#000000" stroke-width="6.624361" stroke-opacity="1" stroke-miterlimit="4"/></g><g fill="#8c52ff" fill-opacity="1"><g transform="translate(82.022016, 100.210796)"><g><path d="M 40.71875 -8.421875 C 40.71875 -6.472656 40.296875 -4.828125 39.453125 -3.484375 C 38.609375 -2.148438 37.5 -1.140625 36.125 -0.453125 C 34.75 0.234375 33.257812 0.578125 31.65625 0.578125 C 30.46875 0.578125 29.3125 0.359375 28.1875 -0.078125 C 27.0625 -0.523438 26.054688 -1.1875 25.171875 -2.0625 L 15.3125 -11.984375 C 15.238281 -12.171875 15.113281 -12.171875 14.9375 -11.984375 C 14.769531 -11.796875 14.722656 -11.601562 14.796875 -11.40625 L 18.0625 -6.359375 C 17.644531 -4.378906 16.59375 -2.726562 14.90625 -1.40625 C 13.226562 -0.0820312 11.316406 0.578125 9.171875 0.578125 C 7.492188 0.578125 5.957031 0.164062 4.5625 -0.65625 C 3.164062 -1.476562 2.054688 -2.578125 1.234375 -3.953125 C 0.410156 -5.328125 0 -6.875 0 -8.59375 L 0 -31.53125 C 0 -33.21875 0.410156 -34.75 1.234375 -36.125 C 2.054688 -37.5 3.164062 -38.609375 4.5625 -39.453125 C 5.957031 -40.296875 7.492188 -40.71875 9.171875 -40.71875 C 10.546875 -40.71875 11.84375 -40.398438 13.0625 -39.765625 C 14.289062 -39.140625 15.328125 -38.382812 16.171875 -37.5 L 25.515625 -28.328125 C 25.585938 -28.171875 25.710938 -28.148438 25.890625 -28.265625 C 26.066406 -28.378906 26.113281 -28.515625 26.03125 -28.671875 L 22.65625 -33.609375 C 22.957031 -34.898438 23.523438 -36.082031 24.359375 -37.15625 C 25.203125 -38.226562 26.242188 -39.085938 27.484375 -39.734375 C 28.734375 -40.390625 30.066406 -40.71875 31.484375 -40.71875 C 33.503906 -40.71875 35.191406 -40.296875 36.546875 -39.453125 C 37.910156 -38.609375 38.945312 -37.5 39.65625 -36.125 C 40.363281 -34.75 40.71875 -33.21875 40.71875 -31.53125 Z M 40.71875 -8.421875 "/></g></g></g><g clip-path="url(#385d2ae49a)"><path stroke-linecap="butt" transform="matrix(0.670643, 0, 0, 0.670643, 43.513846, 42.994341)" fill="none" stroke-linejoin="miter" d="M 29.597634 26.114462 C 33.67488 26.114462 37.513315 26.877489 41.12459 28.403544 C 44.747514 29.91795 47.910292 32.020644 50.618749 34.717451 C 53.338854 37.408433 55.476496 40.536263 57.025849 44.089291 C 58.581027 47.648145 59.355704 51.463282 59.355704 55.534703 C 59.355704 59.623598 58.581027 63.44456 57.025849 67.003413 C 55.476496 70.556442 53.338854 73.666798 50.618749 76.334482 C 47.910292 79.002165 44.747514 81.087385 41.12459 82.584317 C 37.513315 84.075424 33.67488 84.815153 29.597634 84.815153 C 25.578634 84.815153 21.769322 84.075424 18.175521 82.584317 C 14.587544 81.087385 11.436416 79.002165 8.71631 76.334482 C 5.996205 73.666798 3.864388 70.556442 2.309209 67.003413 C 0.771505 63.44456 0.00265321 59.623598 0.00265321 55.534703 C 0.00265321 51.463282 0.771505 47.648145 2.309209 44.089291 C 3.864388 40.536263 5.996205 37.408433 8.71631 34.717451 C 11.436416 32.020644 14.587544 29.91795 18.175521 28.403544 C 21.769322 26.877489 25.578634 26.114462 29.597634 26.114462 Z M 29.597634 51.952551 C 28.77636 51.952551 28.036631 52.249608 27.390096 52.849545 C 26.737737 53.443658 26.411557 54.264932 26.411557 55.295893 C 26.411557 56.227835 26.737737 57.031635 27.390096 57.707293 C 28.036631 58.382951 28.77636 58.72078 29.597634 58.72078 C 30.512102 58.72078 31.310077 58.382951 31.985735 57.707293 C 32.678867 57.031635 33.02252 56.227835 33.02252 55.295893 C 33.02252 54.264932 32.678867 53.443658 31.985735 52.849545 C 31.310077 52.249608 30.512102 51.952551 29.597634 51.952551 Z M 29.597634 51.952551 " stroke="#000000" stroke-width="6.624361" stroke-opacity="1" stroke-miterlimit="4"/></g><g fill="#8c52ff" fill-opacity="1"><g transform="translate(43.513846, 99.328324)"><g><path d="M 19.84375 -38.8125 C 22.582031 -38.8125 25.160156 -38.300781 27.578125 -37.28125 C 30.003906 -36.257812 32.128906 -34.847656 33.953125 -33.046875 C 35.773438 -31.242188 37.203125 -29.148438 38.234375 -26.765625 C 39.273438 -24.378906 39.796875 -21.816406 39.796875 -19.078125 C 39.796875 -16.347656 39.273438 -13.785156 38.234375 -11.390625 C 37.203125 -9.003906 35.773438 -6.914062 33.953125 -5.125 C 32.128906 -3.34375 30.003906 -1.953125 27.578125 -0.953125 C 25.160156 0.046875 22.582031 0.546875 19.84375 0.546875 C 17.144531 0.546875 14.59375 0.046875 12.1875 -0.953125 C 9.78125 -1.953125 7.664062 -3.34375 5.84375 -5.125 C 4.019531 -6.914062 2.585938 -9.003906 1.546875 -11.390625 C 0.515625 -13.785156 0 -16.347656 0 -19.078125 C 0 -21.816406 0.515625 -24.378906 1.546875 -26.765625 C 2.585938 -29.148438 4.019531 -31.242188 5.84375 -33.046875 C 7.664062 -34.847656 9.78125 -36.257812 12.1875 -37.28125 C 14.59375 -38.300781 17.144531 -38.8125 19.84375 -38.8125 Z M 19.84375 -21.484375 C 19.300781 -21.484375 18.8125 -21.28125 18.375 -20.875 C 17.9375 -20.476562 17.71875 -19.9375 17.71875 -19.25 C 17.71875 -18.625 17.9375 -18.082031 18.375 -17.625 C 18.8125 -17.175781 19.300781 -16.953125 19.84375 -16.953125 C 20.46875 -16.953125 21.003906 -17.175781 21.453125 -17.625 C 21.910156 -18.082031 22.140625 -18.625 22.140625 -19.25 C 22.140625 -19.9375 21.910156 -20.476562 21.453125 -20.875 C 21.003906 -21.28125 20.46875 -21.484375 19.84375 -21.484375 Z M 19.84375 -21.484375 "/></g></g></g><g clip-path="url(#df3ea89ced)"><path stroke-linecap="butt" transform="matrix(0.815372, 0, 0, 0.815372, 2.430574, 37.190868)" fill="none" stroke-linejoin="miter" d="M 29.097972 25.05632 L 39.925083 25.05632 C 42.358788 25.05632 44.548164 25.659956 46.502793 26.872017 C 48.467003 28.079288 50.038372 29.679401 51.22648 31.667565 C 52.419378 33.66052 53.018223 35.81157 53.018223 38.130296 C 53.018223 40.564001 52.419378 42.77254 51.22648 44.760704 C 50.038372 46.739287 48.467003 48.310655 46.502793 49.465228 C 44.548164 50.624591 42.358788 51.204273 39.925083 51.204273 C 38.023153 51.204273 36.312853 50.907246 34.784601 50.317983 C 33.26114 49.723929 31.910147 49.431693 30.722039 49.431693 C 29.893238 49.431693 29.179415 49.723929 28.590152 50.317983 C 27.996098 50.907246 27.699071 51.621069 27.699071 52.45466 C 27.699071 53.221182 27.996098 53.877515 28.590152 54.418871 C 29.179415 54.960226 29.893238 55.228509 30.722039 55.228509 C 31.910147 55.228509 33.26114 54.936273 34.784601 54.342219 C 36.312853 53.748165 38.023153 53.455929 39.925083 53.455929 C 42.358788 53.455929 44.548164 54.078727 46.502793 55.324324 C 48.467003 56.560339 50.038372 58.193988 51.22648 60.23485 C 52.419378 62.266131 53.018223 64.493833 53.018223 66.927538 C 53.018223 69.241474 52.419378 71.397314 51.22648 73.385479 C 50.038372 75.364061 48.467003 76.964174 46.502793 78.185817 C 44.548164 79.393088 42.358788 80.001514 39.925083 80.001514 L 28.719502 80.001514 C 25.006666 80.001514 21.518994 79.268528 18.256489 77.807347 C 15.003565 76.336585 12.12432 74.305304 9.618753 71.723086 C 7.12756 69.140868 5.177722 66.199343 3.783611 62.898511 C 2.394292 59.60247 1.704423 56.11959 1.704423 52.45466 C 1.704423 48.636427 2.408664 45.062522 3.817147 41.737737 C 5.244792 38.40337 7.218584 35.485799 9.752895 32.989814 C 12.282414 30.484248 15.199986 28.539201 18.500817 27.154672 C 21.801649 25.755771 25.332437 25.05632 29.097972 25.05632 Z M 29.097972 25.05632 " stroke="#000000" stroke-width="6.28836" stroke-opacity="1" stroke-miterlimit="4"/></g><g fill="#8c52ff" fill-opacity="1"><g transform="translate(3.819254, 102.42064)"><g><path d="M 22.34375 -44.8125 L 31.171875 -44.8125 C 33.148438 -44.8125 34.9375 -44.316406 36.53125 -43.328125 C 38.132812 -42.335938 39.421875 -41.03125 40.390625 -39.40625 C 41.359375 -37.789062 41.84375 -36.035156 41.84375 -34.140625 C 41.84375 -32.160156 41.359375 -30.359375 40.390625 -28.734375 C 39.421875 -27.117188 38.132812 -25.835938 36.53125 -24.890625 C 34.9375 -23.953125 33.148438 -23.484375 31.171875 -23.484375 C 29.617188 -23.484375 28.222656 -23.722656 26.984375 -24.203125 C 25.742188 -24.679688 24.640625 -24.921875 23.671875 -24.921875 C 22.992188 -24.921875 22.410156 -24.679688 21.921875 -24.203125 C 21.441406 -23.722656 21.203125 -23.144531 21.203125 -22.46875 C 21.203125 -21.832031 21.441406 -21.289062 21.921875 -20.84375 C 22.410156 -20.40625 22.992188 -20.1875 23.671875 -20.1875 C 24.640625 -20.1875 25.742188 -20.425781 26.984375 -20.90625 C 28.222656 -21.394531 29.617188 -21.640625 31.171875 -21.640625 C 33.148438 -21.640625 34.9375 -21.132812 36.53125 -20.125 C 38.132812 -19.125 39.421875 -17.789062 40.390625 -16.125 C 41.359375 -14.457031 41.84375 -12.640625 41.84375 -10.671875 C 41.84375 -8.773438 41.359375 -7.015625 40.390625 -5.390625 C 39.421875 -3.773438 38.132812 -2.472656 36.53125 -1.484375 C 34.9375 -0.492188 33.148438 0 31.171875 0 L 22.03125 0 C 19 0 16.15625 -0.597656 13.5 -1.796875 C 10.851562 -2.992188 8.507812 -4.644531 6.46875 -6.75 C 4.425781 -8.851562 2.835938 -11.25 1.703125 -13.9375 C 0.566406 -16.632812 0 -19.476562 0 -22.46875 C 0 -25.582031 0.578125 -28.492188 1.734375 -31.203125 C 2.890625 -33.921875 4.5 -36.300781 6.5625 -38.34375 C 8.625 -40.382812 11 -41.972656 13.6875 -43.109375 C 16.382812 -44.242188 19.269531 -44.8125 22.34375 -44.8125 Z M 22.34375 -44.8125 "/></g></g></g><g clip-path="url(#0ec4104d7c)"><path stroke-linecap="butt" transform="matrix(0.780531, 0, 0, 0.780531, 205.936511, -15.292397)" fill="none" stroke-linejoin="miter" d="M 7.733382 39.23537 C 7.733382 36.793123 8.293898 34.581088 9.40492 32.604269 C 10.520947 30.617441 12.06737 29.035985 14.044189 27.869912 C 16.036022 26.698835 18.303108 26.118301 20.850452 26.118301 L 42.15005 26.118301 C 44.697394 26.118301 46.919439 26.738872 48.816184 27.990023 C 50.727943 29.23617 52.209306 30.852657 53.255269 32.84449 C 54.316245 34.821309 54.846733 36.923243 54.846733 39.155297 C 54.846733 41.437396 54.306236 43.534326 53.215232 45.446085 C 52.144246 47.34283 50.607833 48.859225 48.621004 50.000275 C 46.639181 51.14633 44.266998 51.766901 41.494447 51.871998 C 41.214189 51.871998 41.07406 52.02714 41.07406 52.332421 C 41.07406 52.622688 41.214189 52.822873 41.494447 52.927969 C 43.721496 53.208227 45.893495 53.063094 48.000433 52.492569 C 50.12739 51.922044 52.004117 50.791003 53.635618 49.104451 C 54.446364 50.8961 54.846733 52.802854 54.846733 54.81971 C 54.846733 58.613201 53.695674 61.625973 51.383546 63.858026 C 49.076423 66.085076 46.048637 67.421305 42.310198 67.856706 C 42.02994 67.856706 41.889811 68.021858 41.889811 68.357166 C 41.889811 68.672456 42.02994 68.832604 42.310198 68.832604 C 44.417136 69.057811 46.484038 68.897664 48.500894 68.357166 C 50.51775 67.811664 52.279371 66.635582 53.795766 64.833924 C 54.231166 65.549583 54.541452 66.345315 54.731627 67.221121 C 54.926807 68.081913 55.026899 69.38311 55.026899 71.119708 C 55.026899 72.370859 54.781673 73.742121 54.291222 75.243503 C 53.80077 76.72987 53.025057 78.141169 51.96408 79.482403 C 50.903104 80.808623 49.566875 81.894623 47.960396 82.745405 C 46.368932 83.581175 44.43215 84.001561 42.15005 84.001561 L 20.690304 84.001561 C 18.303108 84.001561 16.116095 83.416023 14.124263 82.24995 C 12.147444 81.078872 10.586007 79.52244 9.444957 77.570644 C 8.303907 75.608839 7.733382 73.456859 7.733382 71.119708 Z M 7.733382 39.23537 " stroke="#000000" stroke-width="6.624361" stroke-opacity="1" stroke-miterlimit="4"/></g><g fill="#8c52ff" fill-opacity="1"><g transform="translate(211.973431, 50.272219)"><g><path d="M 0 -34.9375 C 0 -36.84375 0.429688 -38.570312 1.296875 -40.125 C 2.171875 -41.675781 3.378906 -42.90625 4.921875 -43.8125 C 6.472656 -44.726562 8.25 -45.1875 10.25 -45.1875 L 26.859375 -45.1875 C 28.847656 -45.1875 30.582031 -44.695312 32.0625 -43.71875 C 33.550781 -42.738281 34.707031 -41.472656 35.53125 -39.921875 C 36.363281 -38.378906 36.78125 -36.738281 36.78125 -35 C 36.78125 -33.21875 36.351562 -31.582031 35.5 -30.09375 C 34.65625 -28.613281 33.457031 -27.425781 31.90625 -26.53125 C 30.363281 -25.644531 28.507812 -25.160156 26.34375 -25.078125 C 26.132812 -25.078125 26.03125 -24.957031 26.03125 -24.71875 C 26.03125 -24.488281 26.132812 -24.332031 26.34375 -24.25 C 28.082031 -24.03125 29.78125 -24.144531 31.4375 -24.59375 C 33.09375 -25.039062 34.554688 -25.921875 35.828125 -27.234375 C 36.460938 -25.835938 36.78125 -24.351562 36.78125 -22.78125 C 36.78125 -19.8125 35.878906 -17.457031 34.078125 -15.71875 C 32.273438 -13.976562 29.910156 -12.9375 26.984375 -12.59375 C 26.773438 -12.59375 26.671875 -12.46875 26.671875 -12.21875 C 26.671875 -11.96875 26.773438 -11.84375 26.984375 -11.84375 C 28.640625 -11.664062 30.25 -11.789062 31.8125 -12.21875 C 33.382812 -12.644531 34.765625 -13.554688 35.953125 -14.953125 C 36.296875 -14.398438 36.539062 -13.785156 36.6875 -13.109375 C 36.832031 -12.429688 36.90625 -11.414062 36.90625 -10.0625 C 36.90625 -9.082031 36.710938 -8.007812 36.328125 -6.84375 C 35.953125 -5.675781 35.347656 -4.570312 34.515625 -3.53125 C 33.691406 -2.488281 32.65625 -1.640625 31.40625 -0.984375 C 30.15625 -0.328125 28.640625 0 26.859375 0 L 10.125 0 C 8.25 0 6.535156 -0.453125 4.984375 -1.359375 C 3.441406 -2.273438 2.222656 -3.492188 1.328125 -5.015625 C 0.441406 -6.546875 0 -8.226562 0 -10.0625 Z M 0 -34.9375 "/></g></g></g><path stroke-linecap="butt" transform="matrix(0.724261, 0, 0, 0.724261, 178.726727, -11.882303)" fill="none" stroke-linejoin="miter" d="M 39.981247 58.561127 C 39.716969 58.615061 39.582133 58.793044 39.582133 59.10047 C 39.582133 59.391715 39.716969 59.537337 39.981247 59.537337 C 44.544086 59.375535 48.357239 57.638851 51.404525 54.321893 C 52.321408 55.303497 53.092668 56.231167 53.718306 57.110295 C 54.33855 57.973244 54.818565 59.073503 55.147564 60.411073 C 55.481956 61.737856 55.649153 63.652522 55.649153 66.144286 C 55.649153 68.269296 55.115203 70.394306 54.052698 72.513923 C 52.990193 74.622753 51.577115 76.548206 49.813464 78.28489 C 48.049814 80.026967 46.102787 81.413078 43.98317 82.448616 C 41.85816 83.484154 39.711576 84.001923 37.532631 84.001923 L 16.018251 84.001923 C 13.731438 84.001923 11.611821 83.387072 9.648613 82.168157 C 7.696193 80.949243 6.137492 79.347395 4.967119 77.373401 C 3.802138 75.383226 3.219648 73.220462 3.219648 70.885108 L 3.219648 38.993774 C 3.219648 36.555945 3.785958 34.371607 4.929365 32.446153 C 6.072771 30.509913 7.615291 28.967393 9.567712 27.82938 C 11.530919 26.685973 13.682897 26.11427 16.018251 26.11427 L 36.475519 26.11427 C 39.409544 26.11427 42.122438 26.842383 44.619594 28.287821 C 47.127538 29.717079 49.123106 31.691074 50.611692 34.199017 C 52.111064 36.69078 52.860751 39.484576 52.860751 42.580403 C 52.860751 45.136887 52.289047 47.536962 51.145641 49.764448 C 50.007628 51.991933 48.475895 53.868846 46.550441 55.395185 C 44.624988 56.910738 42.435256 57.962457 39.981247 58.561127 Z M 39.981247 58.561127 " stroke="#000000" stroke-width="6.624361" stroke-opacity="1" stroke-miterlimit="4"/><g fill="#8c52ff" fill-opacity="1"><g transform="translate(181.114526, 48.955639)"><g><path d="M 26.578125 -18.421875 C 26.378906 -18.378906 26.28125 -18.25 26.28125 -18.03125 C 26.28125 -17.820312 26.378906 -17.71875 26.578125 -17.71875 C 29.878906 -17.832031 32.632812 -19.09375 34.84375 -21.5 C 35.507812 -20.789062 36.066406 -20.117188 36.515625 -19.484375 C 36.972656 -18.859375 37.316406 -18.0625 37.546875 -17.09375 C 37.785156 -16.125 37.90625 -14.738281 37.90625 -12.9375 C 37.90625 -11.394531 37.519531 -9.851562 36.75 -8.3125 C 35.988281 -6.78125 34.96875 -5.382812 33.6875 -4.125 C 32.40625 -2.875 30.992188 -1.875 29.453125 -1.125 C 27.921875 -0.375 26.367188 0 24.796875 0 L 9.21875 0 C 7.5625 0 6.023438 -0.441406 4.609375 -1.328125 C 3.191406 -2.210938 2.054688 -3.375 1.203125 -4.8125 C 0.359375 -6.25 -0.0625 -7.8125 -0.0625 -9.5 L -0.0625 -32.59375 C -0.0625 -34.363281 0.347656 -35.945312 1.171875 -37.34375 C 2.003906 -38.738281 3.128906 -39.847656 4.546875 -40.671875 C 5.960938 -41.503906 7.519531 -41.921875 9.21875 -41.921875 L 24.03125 -41.921875 C 26.15625 -41.921875 28.125 -41.398438 29.9375 -40.359375 C 31.75 -39.316406 33.195312 -37.890625 34.28125 -36.078125 C 35.363281 -34.265625 35.90625 -32.238281 35.90625 -30 C 35.90625 -28.144531 35.488281 -26.410156 34.65625 -24.796875 C 33.832031 -23.179688 32.722656 -21.820312 31.328125 -20.71875 C 29.929688 -19.625 28.347656 -18.859375 26.578125 -18.421875 Z M 26.578125 -18.421875 "/></g></g></g><path stroke-linecap="butt" transform="matrix(0.704672, 0, 0, 0.704672, 148.984703, -9.808826)" fill="none" stroke-linejoin="miter" d="M 27.805031 84.736139 C 23.996743 84.736139 20.410188 84.004416 17.039825 82.546512 C 13.669462 81.071978 10.703764 79.065282 8.142732 76.515336 C 5.592786 73.954303 3.597176 70.999692 2.150359 67.657046 C 0.714628 64.314399 -0.000465117 60.738932 -0.000465117 56.930643 L -0.000465117 39.236236 C -0.000465117 36.847048 0.581588 34.662964 1.751237 32.683984 C 2.920886 30.693918 4.506287 29.102973 6.50744 27.905607 C 8.525223 26.713785 10.725938 26.115102 13.115126 26.115102 C 15.520944 26.115102 17.693942 26.713785 19.645205 27.905607 C 21.607554 29.102973 23.165239 30.693918 24.301627 32.683984 C 25.44356 34.662964 26.014526 36.847048 26.014526 39.236236 L 26.014526 55.217745 C 26.014526 55.711104 26.175283 56.171203 26.491255 56.609128 C 26.823857 57.047054 27.261782 57.268788 27.805031 57.268788 C 28.29839 57.268788 28.714142 57.047054 29.063374 56.609128 C 29.418149 56.171203 29.60108 55.711104 29.60108 55.217745 L 29.60108 39.236236 C 29.60108 36.847048 30.183133 34.662964 31.352782 32.683984 C 32.516888 30.693918 34.102289 29.102973 36.108985 27.905607 C 38.126769 26.713785 40.327483 26.115102 42.716671 26.115102 C 45.050426 26.115102 47.179076 26.713785 49.102623 27.905607 C 51.042799 29.102973 52.606026 30.693918 53.803392 32.683984 C 54.995215 34.662964 55.593898 36.847048 55.593898 39.236236 L 55.593898 56.930643 C 55.593898 60.738932 54.856631 64.314399 53.382097 67.657046 C 51.924193 70.999692 49.911953 73.954303 47.350921 76.515336 C 44.806518 79.065282 41.85745 81.071978 38.514804 82.546512 C 35.172158 84.004416 31.602233 84.736139 27.805031 84.736139 Z M 27.805031 84.736139 " stroke="#000000" stroke-width="6.624361" stroke-opacity="1" stroke-miterlimit="4"/><g fill="#8c52ff" fill-opacity="1"><g transform="translate(148.984703, 49.383607)"><g><path d="M 19.59375 0.515625 C 16.90625 0.515625 14.375 0 12 -1.03125 C 9.632812 -2.0625 7.550781 -3.476562 5.75 -5.28125 C 3.945312 -7.082031 2.535156 -9.160156 1.515625 -11.515625 C 0.503906 -13.867188 0 -16.390625 0 -19.078125 L 0 -31.546875 C 0 -33.222656 0.410156 -34.757812 1.234375 -36.15625 C 2.054688 -37.5625 3.175781 -38.6875 4.59375 -39.53125 C 6.007812 -40.375 7.5625 -40.796875 9.25 -40.796875 C 10.9375 -40.796875 12.46875 -40.375 13.84375 -39.53125 C 15.226562 -38.6875 16.320312 -37.5625 17.125 -36.15625 C 17.925781 -34.757812 18.328125 -33.222656 18.328125 -31.546875 L 18.328125 -20.28125 C 18.328125 -19.9375 18.441406 -19.609375 18.671875 -19.296875 C 18.898438 -18.992188 19.207031 -18.84375 19.59375 -18.84375 C 19.9375 -18.84375 20.234375 -18.992188 20.484375 -19.296875 C 20.734375 -19.609375 20.859375 -19.9375 20.859375 -20.28125 L 20.859375 -31.546875 C 20.859375 -33.222656 21.269531 -34.757812 22.09375 -36.15625 C 22.914062 -37.5625 24.035156 -38.6875 25.453125 -39.53125 C 26.867188 -40.375 28.421875 -40.796875 30.109375 -40.796875 C 31.753906 -40.796875 33.253906 -40.375 34.609375 -39.53125 C 35.972656 -38.6875 37.078125 -37.5625 37.921875 -36.15625 C 38.765625 -34.757812 39.1875 -33.222656 39.1875 -31.546875 L 39.1875 -19.078125 C 39.1875 -16.390625 38.664062 -13.867188 37.625 -11.515625 C 36.59375 -9.160156 35.175781 -7.082031 33.375 -5.28125 C 31.582031 -3.476562 29.503906 -2.0625 27.140625 -1.03125 C 24.785156 0 22.269531 0.515625 19.59375 0.515625 Z M 19.59375 0.515625 "/></g></g></g><path stroke-linecap="butt" transform="matrix(0.755447, 0, 0, 0.755447, 119.076439, -12.637334)" fill="none" stroke-linejoin="miter" d="M 40.174014 26.11842 C 42.619792 26.11842 44.827715 26.713059 46.802953 27.907509 C 48.793703 29.101959 50.375961 30.694559 51.539386 32.685309 C 52.723495 34.660547 53.312963 36.847786 53.312963 39.236686 C 53.312963 41.568707 52.744178 43.704239 51.601436 45.643281 C 50.458693 47.566811 48.922972 49.128386 46.98393 50.322836 C 45.0604 51.517286 42.86799 52.111926 40.417041 52.111926 L 40.515285 71.698837 C 40.515285 74.087737 39.910304 76.290489 38.705513 78.307093 C 37.511063 80.313355 35.918463 81.911126 33.927713 83.105576 C 31.947304 84.300025 29.765236 84.894665 27.376336 84.894665 C 25.044314 84.894665 22.89327 84.300025 20.928374 83.105576 C 18.978991 81.911126 17.417415 80.313355 16.248819 78.307093 C 15.080223 76.290489 14.501096 74.087737 14.501096 71.698837 L 14.501096 52.111926 C 12.112196 52.111926 9.935298 51.517286 7.970402 50.322836 C 6.021018 49.128386 4.474955 47.566811 3.332213 45.643281 C 2.189471 43.704239 1.620685 41.568707 1.620685 39.236686 C 1.620685 36.847786 2.189471 34.660547 3.332213 32.685309 C 4.474955 30.694559 6.021018 29.101959 7.970402 27.907509 C 9.935298 26.713059 12.112196 26.11842 14.501096 26.11842 Z M 40.174014 26.11842 " stroke="#000000" stroke-width="6.624361" stroke-opacity="1" stroke-miterlimit="4"/><g fill="#8c52ff" fill-opacity="1"><g transform="translate(120.481099, 50.820222)"><g><path d="M 28.953125 -43.734375 C 30.796875 -43.734375 32.46875 -43.28125 33.96875 -42.375 C 35.46875 -41.46875 36.65625 -40.265625 37.53125 -38.765625 C 38.414062 -37.273438 38.859375 -35.625 38.859375 -33.8125 C 38.859375 -32.050781 38.425781 -30.441406 37.5625 -28.984375 C 36.707031 -27.523438 35.550781 -26.34375 34.09375 -25.4375 C 32.632812 -24.53125 30.984375 -24.078125 29.140625 -24.078125 L 29.203125 -9.296875 C 29.203125 -7.492188 28.75 -5.832031 27.84375 -4.3125 C 26.9375 -2.789062 25.734375 -1.578125 24.234375 -0.671875 C 22.734375 0.222656 21.082031 0.671875 19.28125 0.671875 C 17.507812 0.671875 15.882812 0.222656 14.40625 -0.671875 C 12.9375 -1.578125 11.757812 -2.789062 10.875 -4.3125 C 9.988281 -5.832031 9.546875 -7.492188 9.546875 -9.296875 L 9.546875 -24.078125 C 7.742188 -24.078125 6.101562 -24.53125 4.625 -25.4375 C 3.144531 -26.34375 1.972656 -27.523438 1.109375 -28.984375 C 0.242188 -30.441406 -0.1875 -32.050781 -0.1875 -33.8125 C -0.1875 -35.625 0.242188 -37.273438 1.109375 -38.765625 C 1.972656 -40.265625 3.144531 -41.46875 4.625 -42.375 C 6.101562 -43.28125 7.742188 -43.734375 9.546875 -43.734375 Z M 28.953125 -43.734375 "/></g></g></g><path stroke-linecap="butt" transform="matrix(0.703327, 0, 0, 0.703327, 72.073423, -9.666495)" fill="none" stroke-linejoin="miter" d="M 47.41528 84.734659 C 43.605264 84.734659 40.017406 84.00709 36.646153 82.546399 C 33.2749 81.0746 30.309086 79.064066 27.748711 76.514799 C 25.204997 73.954424 23.205572 70.999718 21.761543 67.656234 C 20.328621 64.312751 19.606607 60.736001 19.606607 56.931539 L 19.606607 39.236626 C 19.606607 36.842869 20.195326 34.660163 21.361658 32.682954 C 22.527989 30.694636 24.116421 29.10065 26.115847 27.906549 C 28.137488 26.712448 30.336856 26.118174 32.725058 26.118174 C 35.129922 26.118174 37.307074 26.712448 39.256514 27.906549 C 41.217062 29.10065 42.77217 30.694636 43.910732 32.682954 C 45.054847 34.660163 45.626905 36.842869 45.626905 39.236626 L 45.626905 55.215366 C 45.626905 55.709668 45.782416 56.170647 46.104546 56.60941 C 46.432229 57.048172 46.870992 57.270331 47.41528 57.270331 C 47.909582 57.270331 48.326129 57.048172 48.670475 56.60941 C 49.025928 56.170647 49.209209 55.709668 49.209209 55.215366 L 49.209209 39.236626 C 49.209209 36.842869 49.792374 34.660163 50.958706 32.682954 C 52.125037 30.694636 53.71347 29.10065 55.718449 27.906549 C 57.734536 26.712448 59.933904 26.118174 62.32766 26.118174 C 64.660323 26.118174 66.793043 26.712448 68.714713 27.906549 C 70.653045 29.10065 72.219261 30.694636 73.413362 32.682954 C 74.607464 34.660163 75.201737 36.842869 75.201737 39.236626 L 75.201737 56.931539 C 75.201737 60.736001 74.468615 64.312751 72.991262 67.656234 C 71.536124 70.999718 69.525591 73.954424 66.965216 76.514799 C 64.415949 79.064066 61.466796 81.0746 58.123313 82.546399 C 54.77983 84.00709 51.214188 84.734659 47.41528 84.734659 Z M 47.41528 84.734659 " stroke="#000000" stroke-width="6.624361" stroke-opacity="1" stroke-miterlimit="4"/><g fill="#8c52ff" fill-opacity="1"><g transform="translate(85.865228, 49.412982)"><g><path d="M 19.546875 0.515625 C 16.878906 0.515625 14.359375 0 11.984375 -1.03125 C 9.609375 -2.0625 7.523438 -3.472656 5.734375 -5.265625 C 3.941406 -7.066406 2.535156 -9.144531 1.515625 -11.5 C 0.503906 -13.851562 0 -16.363281 0 -19.03125 L 0 -31.484375 C 0 -33.160156 0.410156 -34.695312 1.234375 -36.09375 C 2.054688 -37.488281 3.171875 -38.609375 4.578125 -39.453125 C 5.992188 -40.296875 7.546875 -40.71875 9.234375 -40.71875 C 10.910156 -40.71875 12.4375 -40.296875 13.8125 -39.453125 C 15.195312 -38.609375 16.289062 -37.488281 17.09375 -36.09375 C 17.894531 -34.695312 18.296875 -33.160156 18.296875 -31.484375 L 18.296875 -20.25 C 18.296875 -19.894531 18.410156 -19.566406 18.640625 -19.265625 C 18.867188 -18.960938 19.171875 -18.8125 19.546875 -18.8125 C 19.890625 -18.8125 20.1875 -18.960938 20.4375 -19.265625 C 20.6875 -19.566406 20.8125 -19.894531 20.8125 -20.25 L 20.8125 -31.484375 C 20.8125 -33.160156 21.222656 -34.695312 22.046875 -36.09375 C 22.867188 -37.488281 23.988281 -38.609375 25.40625 -39.453125 C 26.820312 -40.296875 28.367188 -40.71875 30.046875 -40.71875 C 31.691406 -40.71875 33.191406 -40.296875 34.546875 -39.453125 C 35.898438 -38.609375 37 -37.488281 37.84375 -36.09375 C 38.6875 -34.695312 39.109375 -33.160156 39.109375 -31.484375 L 39.109375 -19.03125 C 39.109375 -16.363281 38.59375 -13.851562 37.5625 -11.5 C 36.53125 -9.144531 35.113281 -7.066406 33.3125 -5.265625 C 31.519531 -3.472656 29.445312 -2.0625 27.09375 -1.03125 C 24.738281 0 22.222656 0.515625 19.546875 0.515625 Z M 19.546875 0.515625 "/></g></g></g><path stroke-linecap="butt" transform="matrix(0.670643, 0, 0, 0.670643, 46.499883, -7.803478)" fill="none" stroke-linejoin="miter" d="M 29.60098 26.115869 C 33.672401 26.115869 37.516661 26.878897 41.122112 28.404951 C 44.745036 29.919357 47.913638 32.022051 50.61627 34.713033 C 53.336375 37.40984 55.474017 40.531846 57.029195 44.090699 C 58.578549 47.649552 59.353225 51.464689 59.353225 55.53611 C 59.353225 59.625006 58.578549 63.445967 57.029195 66.998996 C 55.474017 70.557849 53.336375 73.668205 50.61627 76.335889 C 47.913638 79.003573 44.745036 81.088793 41.122112 82.585725 C 37.516661 84.071007 33.672401 84.816561 29.60098 84.816561 C 25.576155 84.816561 21.766843 84.071007 18.173042 82.585725 C 14.59089 81.088793 11.439762 79.003573 8.719656 76.335889 C 5.999551 73.668205 3.861909 70.557849 2.306731 66.998996 C 0.769027 63.445967 0.000174532 59.625006 0.000174532 55.53611 C 0.000174532 51.464689 0.769027 47.649552 2.306731 44.090699 C 3.861909 40.531846 5.999551 37.40984 8.719656 34.713033 C 11.439762 32.022051 14.59089 29.919357 18.173042 28.404951 C 21.766843 26.878897 25.576155 26.115869 29.60098 26.115869 Z M 29.60098 51.953959 C 28.773881 51.953959 28.039977 52.251015 27.387618 52.850953 C 26.741083 53.445066 26.414903 54.260515 26.414903 55.2973 C 26.414903 56.223418 26.741083 57.027218 27.387618 57.702875 C 28.039977 58.384358 28.773881 58.722187 29.60098 58.722187 C 30.515448 58.722187 31.307598 58.384358 31.989081 57.702875 C 32.676388 57.027218 33.020042 56.223418 33.020042 55.2973 C 33.020042 54.260515 32.676388 53.445066 31.989081 52.850953 C 31.307598 52.251015 30.515448 51.953959 29.60098 51.953959 Z M 29.60098 51.953959 " stroke="#000000" stroke-width="6.624361" stroke-opacity="1" stroke-miterlimit="4"/><g fill="#8c52ff" fill-opacity="1"><g transform="translate(46.499883, 48.530505)"><g><path d="M 19.84375 -38.8125 C 22.582031 -38.8125 25.160156 -38.300781 27.578125 -37.28125 C 30.003906 -36.257812 32.128906 -34.847656 33.953125 -33.046875 C 35.773438 -31.242188 37.203125 -29.148438 38.234375 -26.765625 C 39.273438 -24.378906 39.796875 -21.816406 39.796875 -19.078125 C 39.796875 -16.347656 39.273438 -13.785156 38.234375 -11.390625 C 37.203125 -9.003906 35.773438 -6.914062 33.953125 -5.125 C 32.128906 -3.34375 30.003906 -1.953125 27.578125 -0.953125 C 25.160156 0.046875 22.582031 0.546875 19.84375 0.546875 C 17.144531 0.546875 14.59375 0.046875 12.1875 -0.953125 C 9.78125 -1.953125 7.664062 -3.34375 5.84375 -5.125 C 4.019531 -6.914062 2.585938 -9.003906 1.546875 -11.390625 C 0.515625 -13.785156 0 -16.347656 0 -19.078125 C 0 -21.816406 0.515625 -24.378906 1.546875 -26.765625 C 2.585938 -29.148438 4.019531 -31.242188 5.84375 -33.046875 C 7.664062 -34.847656 9.78125 -36.257812 12.1875 -37.28125 C 14.59375 -38.300781 17.144531 -38.8125 19.84375 -38.8125 Z M 19.84375 -21.484375 C 19.300781 -21.484375 18.8125 -21.28125 18.375 -20.875 C 17.9375 -20.476562 17.71875 -19.9375 17.71875 -19.25 C 17.71875 -18.625 17.9375 -18.082031 18.375 -17.625 C 18.8125 -17.175781 19.300781 -16.953125 19.84375 -16.953125 C 20.46875 -16.953125 21.003906 -17.175781 21.453125 -17.625 C 21.910156 -18.082031 22.140625 -18.625 22.140625 -19.25 C 22.140625 -19.9375 21.910156 -20.476562 21.453125 -20.875 C 21.003906 -21.28125 20.46875 -21.484375 19.84375 -21.484375 Z M 19.84375 -21.484375 "/></g></g></g><g clip-path="url(#bb92055763)"><path stroke-linecap="butt" transform="matrix(0.873007, 0, 0, 0.873007, 5.41661, -17.741784)" fill="none" stroke-linejoin="miter" d="M 33.439334 28.685418 C 34.620596 27.450462 35.958465 26.537669 37.443992 25.942563 C 38.942943 25.351932 40.441893 25.056616 41.940843 25.056616 C 44.204929 25.056616 46.240817 25.611452 48.044032 26.716648 C 49.856195 27.826319 51.292503 29.311845 52.34848 31.177703 C 53.408931 33.030137 53.93692 35.088397 53.93692 37.356958 C 53.93692 38.905127 53.655028 40.444348 53.086769 41.96567 C 52.51851 43.491468 51.645987 44.869607 50.46025 46.104563 L 39.860211 56.928326 L 39.860211 67.698396 C 39.860211 69.966956 39.300901 72.034165 38.177807 73.895548 C 37.072611 75.747983 35.57366 77.229035 33.680956 78.338706 C 31.806149 79.443902 29.734466 79.998737 27.465905 79.998737 C 25.251039 79.998737 23.197253 79.443902 21.309023 78.338706 C 19.429742 77.229035 17.939741 75.747983 16.83007 73.895548 C 15.7204 72.034165 15.165564 69.966956 15.165564 67.698396 L 15.165564 56.928326 L 4.565525 46.104563 C 3.433482 44.869607 2.569907 43.491468 1.979276 41.96567 C 1.388645 40.444348 1.088855 38.905127 1.088855 37.356958 C 1.088855 35.088397 1.612369 33.030137 2.659397 31.177703 C 3.715374 29.311845 5.147207 27.826319 6.945947 26.716648 C 8.762586 25.611452 10.776101 25.056616 12.995442 25.056616 C 14.494392 25.056616 15.979919 25.351932 17.452023 25.942563 C 18.928601 26.537669 20.230674 27.450462 21.362717 28.685418 L 27.465905 34.882571 Z M 33.439334 28.685418 " stroke="#000000" stroke-width="6.28836" stroke-opacity="1" stroke-miterlimit="4"/></g><g fill="#8c52ff" fill-opacity="1"><g transform="translate(6.698838, 52.098759)"><g><path d="M 27.90625 -44.796875 C 28.9375 -45.878906 30.101562 -46.675781 31.40625 -47.1875 C 32.71875 -47.707031 34.023438 -47.96875 35.328125 -47.96875 C 37.316406 -47.96875 39.097656 -47.484375 40.671875 -46.515625 C 42.242188 -45.546875 43.492188 -44.25 44.421875 -42.625 C 45.347656 -41.007812 45.8125 -39.210938 45.8125 -37.234375 C 45.8125 -35.878906 45.5625 -34.535156 45.0625 -33.203125 C 44.570312 -31.878906 43.804688 -30.675781 42.765625 -29.59375 L 33.515625 -20.140625 L 33.515625 -10.75 C 33.515625 -8.757812 33.03125 -6.953125 32.0625 -5.328125 C 31.09375 -3.710938 29.785156 -2.421875 28.140625 -1.453125 C 26.492188 -0.484375 24.679688 0 22.703125 0 C 20.765625 0 18.972656 -0.484375 17.328125 -1.453125 C 15.679688 -2.421875 14.375 -3.710938 13.40625 -5.328125 C 12.4375 -6.953125 11.953125 -8.757812 11.953125 -10.75 L 11.953125 -20.140625 L 2.703125 -29.59375 C 1.710938 -30.675781 0.957031 -31.878906 0.4375 -33.203125 C -0.0820312 -34.535156 -0.34375 -35.878906 -0.34375 -37.234375 C -0.34375 -39.210938 0.117188 -41.007812 1.046875 -42.625 C 1.972656 -44.25 3.222656 -45.546875 4.796875 -46.515625 C 6.367188 -47.484375 8.125 -47.96875 10.0625 -47.96875 C 11.375 -47.96875 12.671875 -47.707031 13.953125 -47.1875 C 15.234375 -46.675781 16.367188 -45.878906 17.359375 -44.796875 L 22.703125 -39.390625 Z M 27.90625 -44.796875 "/></g></g></g></svg>